HIERARCHY
ROOT joint_Root
{
	OFFSET 0.0 0.0 0.0
	CHANNELS 6 Xposition Yposition Zposition Zrotation Xrotation Yrotation 
	JOINT Hips
	{
		OFFSET -0.726466 93.3139 -2.00062
		CHANNELS 6 Xposition Yposition Zposition Zrotation Xrotation Yrotation 
		JOINT Spine
		{
			OFFSET 15.7357 0.0 0.0
			CHANNELS 6 Xposition Yposition Zposition Zrotation Xrotation Yrotation 
			JOINT Chest
			{
				OFFSET 8.98455 -0.406207 0.0
				CHANNELS 6 Xposition Yposition Zposition Zrotation Xrotation Yrotation 
				JOINT Neck
				{
					OFFSET 16.3773 0.0 0.0
					CHANNELS 6 Xposition Yposition Zposition Zrotation Xrotation Yrotation 
					JOINT Head
					{
						OFFSET 6.45672 0.0 0.0
						CHANNELS 6 Xposition Yposition Zposition Zrotation Xrotation Yrotation 
						End Site
						{
							OFFSET 0.0 0.0 0.0
						}
					}
				}
				JOINT Shoulder_L
				{
					OFFSET 12.9942 -0.242716 4.98039
					CHANNELS 6 Xposition Yposition Zposition Zrotation Xrotation Yrotation 
					JOINT UpperArm_L
					{
						OFFSET 5.34809 0.0 0.0
						CHANNELS 6 Xposition Yposition Zposition Zrotation Xrotation Yrotation 
						JOINT LowerArm_L
						{
							OFFSET 24.3286 1.87007e-05 0.0
							CHANNELS 6 Xposition Yposition Zposition Zrotation Xrotation Yrotation 
							JOINT Hand_L
							{
								OFFSET 22.2916 0.0 0.0
								CHANNELS 6 Xposition Yposition Zposition Zrotation Xrotation Yrotation 
								End Site
								{
									OFFSET 0.0 0.0 0.0
								}
							}
						}
					}
				}
				JOINT Shoulder_R
				{
					OFFSET 12.9945 -0.242716 -4.98039
					CHANNELS 6 Xposition Yposition Zposition Zrotation Xrotation Yrotation 
					JOINT UpperArm_R
					{
						OFFSET -5.34813 0.0 0.0
						CHANNELS 6 Xposition Yposition Zposition Zrotation Xrotation Yrotation 
						JOINT LowerArm_R
						{
							OFFSET -24.3289 0.000322201 0.0
							CHANNELS 6 Xposition Yposition Zposition Zrotation Xrotation Yrotation 
							JOINT Hand_R
							{
								OFFSET -22.2915 -0.000108084 0.0
								CHANNELS 6 Xposition Yposition Zposition Zrotation Xrotation Yrotation 
								End Site
								{
									OFFSET 0.0 0.0 0.0
								}
							}
						}
					}
				}
			}
		}
		JOINT UpperLeg_L
		{
			OFFSET -2.19248 -6.46944 0.0
			CHANNELS 6 Xposition Yposition Zposition Zrotation Xrotation Yrotation 
			JOINT LowerLeg_L
			{
				OFFSET 39.0811 0.0 -1.23785e-05
				CHANNELS 6 Xposition Yposition Zposition Zrotation Xrotation Yrotation 
				JOINT Foot_L
				{
					OFFSET 40.9854 0.0 -1.26872e-05
					CHANNELS 6 Xposition Yposition Zposition Zrotation Xrotation Yrotation 
					JOINT Toes_L
					{
						OFFSET 11.7543 0.0 0.0
						CHANNELS 6 Xposition Yposition Zposition Zrotation Xrotation Yrotation 
						End Site
						{
							OFFSET 0.0 0.0 0.0
						}
					}
				}
			}
		}
		JOINT UpperLeg_R
		{
			OFFSET -2.19251 6.46944 0.0
			CHANNELS 6 Xposition Yposition Zposition Zrotation Xrotation Yrotation 
			JOINT LowerLeg_R
			{
				OFFSET -39.0811 -0.00228153 -0.0401928
				CHANNELS 6 Xposition Yposition Zposition Zrotation Xrotation Yrotation 
				JOINT Foot_R
				{
					OFFSET -40.9854 0.0 0.0
					CHANNELS 6 Xposition Yposition Zposition Zrotation Xrotation Yrotation 
					JOINT Toes_R
					{
						OFFSET -11.7543 0.0 0.0
						CHANNELS 6 Xposition Yposition Zposition Zrotation Xrotation Yrotation 
						End Site
						{
							OFFSET 0.0 0.0 0.0
						}
					}
				}
			}
		}
	}
}
MOTION
Frames:	4
Frame Time:	0.0333333
0.000000 0.000000 0.000000 0.000000 0.000000 -0.000000 -1.107920 93.234500 -0.676710 89.253600 -4.025630 -1.188360 15.735700 0.000005 -0.000001 83.564500 87.328100 -82.469300 8.984550 -0.406207 -0.000000 -2.448330 -0.696358 2.175550 16.377300 -0.000001 -0.000001 0.879099 1.053660 -3.275000 6.456720 -0.000001 -0.000000 3.299360 0.439300 -4.681820 12.994200 -0.242716 4.980390 -84.047200 -11.041100 -61.433500 5.348090 -0.000007 -0.000001 -74.668900 -58.919900 -125.273000 24.328600 0.000019 0.000005 5.241690 3.758620 -54.451500 22.291600 -0.000001 0.000005 23.296300 5.641650 -14.209600 12.994500 -0.242716 -4.980390 88.568000 4.400270 -71.953900 -5.348130 -0.000001 -0.000004 -66.867800 28.632100 -7.793310 -24.328900 0.000322 -0.000009 3.813070 9.757000 -21.474200 -22.291500 -0.000108 -0.000004 10.930400 5.369270 -1.963740 -2.192480 -6.469440 -0.000000 -177.331000 -10.423600 -3.445510 39.081100 -0.000007 -0.000012 -0.048813 0.200771 13.665100 40.985400 -0.000006 -0.000013 -0.679590 2.913090 -61.453200 11.754300 -0.000000 0.000003 -0.000000 -0.000000 -16.577500 -2.192510 6.469440 -0.000001 179.950000 11.204800 178.197000 -39.081100 -0.002282 -0.040193 -0.010004 0.064132 11.750000 -40.985400 0.000008 0.000006 3.678130 7.178680 -61.874700 -11.754300 -0.000006 -0.000006 -0.006315 -0.073673 -19.571700
0.000000 0.000000 0.000000 0.000000 0.000000 -0.000000 -1.085940 93.240600 -0.696845 89.247100 -4.004060 -1.214870 15.735700 0.000005 -0.000001 82.641900 87.334600 -81.512600 8.984550 -0.406207 -0.000000 -2.470520 -0.783336 2.241700 16.377300 -0.000001 -0.000001 0.842308 1.025450 -3.459520 6.456720 -0.000001 -0.000000 3.259960 0.333967 -4.668530 12.994200 -0.242716 4.980390 -84.035200 -11.048100 -61.399500 5.348090 -0.000007 -0.000001 -73.728800 -58.622300 -125.156000 24.328600 0.000019 0.000005 5.216010 3.901570 -53.297200 22.291600 -0.000001 0.000005 24.687800 5.656370 -15.656900 12.994500 -0.242716 -4.980390 88.610100 4.274850 -71.970500 -5.348130 -0.000001 -0.000004 -67.235900 28.837800 -7.847560 -24.328900 0.000322 -0.000009 3.840490 9.620390 -21.890200 -22.291500 -0.000108 -0.000004 10.970400 5.371900 -2.045280 -2.192480 -6.469440 -0.000000 -177.343000 -10.467200 -3.484670 39.081100 -0.000007 -0.000012 -0.048830 0.201240 13.638800 40.985400 -0.000006 -0.000013 -0.657307 2.968560 -61.416900 11.754300 -0.000000 0.000003 -0.000000 -0.000006 -16.577700 -2.192510 6.469440 -0.000001 179.964000 11.129600 178.183000 -39.081100 -0.002282 -0.040193 -0.009079 0.059981 11.693700 -40.985400 0.000008 0.000006 3.687260 7.071780 -61.828300 -11.754300 -0.000006 -0.000006 -0.006440 -0.074785 -19.617100
0.000000 0.000000 0.000000 0.000000 0.000000 -0.000000 -1.078870 93.250800 -0.716729 89.291400 -4.034600 -1.267180 15.735700 0.000005 -0.000001 81.474700 87.341000 -80.286800 8.984550 -0.406207 -0.000000 -2.496490 -0.894464 2.356360 16.377300 -0.000001 -0.000001 0.820221 0.966552 -3.567470 6.456720 -0.000001 -0.000000 3.206280 0.367017 -4.849360 12.994200 -0.242716 4.980390 -83.998800 -11.121700 -61.409900 5.348090 -0.000007 -0.000001 -74.299300 -58.560900 -124.933000 24.328600 0.000019 0.000005 3.887380 3.372130 -49.113100 22.291600 -0.000001 0.000005 23.896700 5.649410 -14.931400 12.994500 -0.242716 -4.980390 88.620500 4.229130 -71.915400 -5.348130 -0.000001 -0.000004 -67.474600 29.113300 -7.973950 -24.328900 0.000322 -0.000009 3.803740 9.363670 -22.232300 -22.291500 -0.000108 -0.000004 10.864000 5.375170 -2.147140 -2.192480 -6.469440 -0.000000 -177.401000 -10.648900 -3.465320 39.081100 -0.000007 -0.000012 -0.048169 0.201051 13.473300 40.985400 -0.000006 -0.000013 -0.637676 3.092570 -61.323700 11.754300 -0.000000 0.000003 -0.000001 -0.000011 -16.577900 -2.192510 6.469440 -0.000001 179.937000 11.077700 178.122000 -39.081100 -0.002282 -0.040193 -0.008767 0.058640 11.661500 -40.985400 0.000008 0.000006 3.701640 7.044230 -61.794200 -11.754300 -0.000006 -0.000006 -0.006439 -0.074774 -19.616700
0.000000 0.000000 0.000000 0.000000 0.000000 -0.000000 -1.101820 93.263900 -0.721225 89.301100 -4.091200 -1.358270 15.735700 0.000005 -0.000001 80.487200 87.361500 -79.197100 8.984550 -0.406207 -0.000000 -2.549250 -0.987925 2.558220 16.377300 -0.000001 -0.000001 0.790163 0.872292 -3.497200 6.456720 -0.000001 -0.000000 3.174650 0.381038 -5.075980 12.994200 -0.242716 4.980390 -83.986500 -11.179800 -61.483900 5.348090 -0.000007 -0.000001 -75.308500 -59.235800 -123.826000 24.328600 0.000019 0.000005 3.049970 3.239530 -43.316500 22.291600 -0.000001 0.000005 22.365900 5.632620 -13.517900 12.994500 -0.242716 -4.980390 88.617500 4.206400 -71.788100 -5.348130 -0.000001 -0.000004 -67.651100 29.326400 -7.985570 -24.328900 0.000322 -0.000009 3.850760 9.276360 -22.669200 -22.291500 -0.000108 -0.000004 10.816900 5.379270 -2.275480 -2.192480 -6.469440 -0.000000 -177.410000 -10.699000 -3.458790 39.081100 -0.000007 -0.000012 -0.047014 0.199076 13.287500 40.985400 -0.000006 -0.000013 -0.661950 3.090400 -61.231900 11.754300 -0.000000 0.000003 -0.000001 -0.000009 -16.577800 -2.192510 6.469440 -0.000001 179.974000 10.951000 178.084000 -39.081100 -0.002282 -0.040193 -0.007330 0.052250 11.538200 -40.985400 0.000008 0.000006 3.804860 7.002760 -61.742300 -11.754300 -0.000006 -0.000006 -0.006318 -0.073701 -19.572900
